<?xml version="1.0" encoding="UTF-8" standalone="no"?>
<svg
   xmlns:dc="http://purl.org/dc/elements/1.1/"
   xmlns:cc="http://creativecommons.org/ns#"
   xmlns:rdf="http://www.w3.org/1999/02/22-rdf-syntax-ns#"
   xmlns:svg="http://www.w3.org/2000/svg"
   xmlns="http://www.w3.org/2000/svg"
   viewBox="0 0 2648 613.14935"
   height="613.14935"
   width="2648"
   xml:space="preserve"
   id="svg2"
   version="1.1"><metadata
     id="metadata8"><rdf:RDF><cc:Work
         rdf:about=""><dc:format>image/svg+xml</dc:format><dc:type
           rdf:resource="http://purl.org/dc/dcmitype/StillImage" /></cc:Work></rdf:RDF></metadata><defs
     id="defs6"><clipPath
       id="clipPath18"
       clipPathUnits="userSpaceOnUse"><path
         id="path16"
         d="M 0,459.862 H 1986 V 0 H 0 Z" /></clipPath></defs><g
     transform="matrix(1.3333333,0,0,-1.3333333,0,613.14933)"
     id="g10"><g
       id="g12"><g
         clip-path="url(#clipPath18)"
         id="g14"><g
           transform="translate(403.1123,114.371)"
           id="g20"><path
             id="path22"
             style="fill:#6f00d3;fill-opacity:1;fill-rule:nonzero;stroke:none"
             d="M 0,0 -173.181,-69.507 -346.362,0 c -9.288,3.728 -14.827,13.323 -13.411,23.231 l 26.409,184.762 146.772,115.259 c 7.874,6.184 18.95,6.184 26.819,0 L -12.999,207.993 13.411,23.231 C 14.825,13.323 9.288,3.728 0,0 m -173.181,345.491 c -126.986,0 -229.931,-102.942 -229.931,-229.931 0,-126.986 102.945,-229.931 229.931,-229.931 126.988,0 229.931,102.945 229.931,229.931 0,126.989 -102.943,229.931 -229.931,229.931" /></g><g
           transform="translate(666.2236,185.7651)"
           id="g24"><path
             id="path26"
             style="fill:#000000;fill-opacity:1;fill-rule:nonzero;stroke:none"
             d="M 0,0 V 177.548 H -30.899 V 0 c 0,-49.973 39.99,-90.626 89.138,-90.626 h 57.619 v 28.728 H 58.239 C 26.897,-61.898 0,-31.863 0,0" /></g><path
           id="path28"
           style="fill:#000000;fill-opacity:1;fill-rule:nonzero;stroke:none"
           d="m 824.832,95.132 h 30.897 v 195.39 h -30.897 z" /><g
           transform="translate(840.6582,364.0736)"
           id="g30"><path
             id="path32"
             style="fill:#000000;fill-opacity:1;fill-rule:nonzero;stroke:none"
             d="m 0,0 c -11.306,0 -19.971,-8.426 -19.971,-20.302 0,-11.876 8.665,-20.304 19.971,-20.304 11.308,0 19.97,8.428 19.97,20.304 C 19.97,-8.426 11.308,0 0,0" /></g><g
           transform="translate(1388.0742,146.4706)"
           id="g34"><path
             id="path36"
             style="fill:#000000;fill-opacity:1;fill-rule:nonzero;stroke:none"
             d="m 0,0 v 115.316 h 49.74 v 28.735 H 0 v 57.332 h -30.896 v -57.332 h -34.67 v -28.735 h 34.67 v -115.7 c 0,-34.477 13.192,-50.954 50.116,-50.954 h 33.533 v 28.734 H 22.234 C 5.65,-22.604 0,-16.475 0,0" /></g><g
           transform="translate(1227.4238,292.8148)"
           id="g38"><path
             id="path40"
             style="fill:#000000;fill-opacity:1;fill-rule:nonzero;stroke:none"
             d="M 0,0 C -32.41,0 -52.002,-16.086 -63.31,-34.478 V 70.497 h -30.897 v -268.181 h 30.897 v 97.695 c 0,44.061 22.235,71.259 58.031,71.259 33.164,0 52.377,-21.455 52.377,-62.061 V -197.684 H 78.002 V -88.878 C 78.002,-24.133 42.953,0 0,0" /></g><g
           transform="translate(1494.0283,212.7489)"
           id="g42"><path
             id="path44"
             style="fill:#000000;fill-opacity:1;fill-rule:nonzero;stroke:none"
             d="m 0,0 c 3.015,31.799 29.012,52.487 57.275,52.487 32.034,0 54.638,-18.775 57.653,-52.487 z m 56.896,80.066 c -54.26,0 -91.184,-40.606 -91.184,-99.989 0,-59.767 37.682,-99.99 95.334,-99.99 44.461,0 76.116,28.733 83.651,67.809 h -31.275 c -6.409,-25.284 -27.506,-39.844 -54.641,-39.844 -36.547,0 -59.537,26.052 -60.666,63.213 v 2.681 h 149.218 c 0.379,4.598 0.755,9.195 0.755,13.41 -1.506,57.847 -36.924,92.71 -91.192,92.71" /></g><g
           transform="translate(1872.2021,119.6542)"
           id="g46"><path
             id="path48"
             style="fill:#000000;fill-opacity:1;fill-rule:nonzero;stroke:none"
             d="m 0,0 c -25.626,0 -41.826,13.025 -41.826,32.181 0,22.215 15.449,32.564 42.955,32.564 H 60.666 C 60.666,34.859 50.808,0 0,0 m 103.999,4.211 c -8.663,0 -12.436,2.683 -12.436,13.029 v 85.433 c 0,45.589 -28.261,70.49 -77.244,70.49 -46.353,0 -76.871,-22.604 -81.391,-60.913 h 30.896 c 3.77,19.92 21.856,32.947 48.989,32.947 30.14,0 47.853,-15.322 47.853,-40.609 V 91.178 H 4.142 c -50.489,0 -77.245,-21.837 -77.245,-60.915 0,-35.629 28.634,-57.079 70.838,-57.079 33.161,0 52.381,14.935 64.438,32.559 0.378,-19.156 9.044,-30.265 34.669,-30.265 h 16.956 V 4.211 Z" /></g><g
           transform="translate(994.0156,120.8022)"
           id="g50"><path
             id="path52"
             style="fill:#000000;fill-opacity:1;fill-rule:nonzero;stroke:none"
             d="m 0,0 c -38.061,0 -63.677,29.495 -63.677,72.024 0,42.522 25.616,72.027 63.677,72.027 37.685,0 63.305,-29.884 63.305,-72.794 C 63.305,29.495 37.685,0 0,0 m 62.924,169.719 v -33.717 c -12.057,21.836 -33.533,36.012 -65.936,36.012 -53.132,0 -92.32,-40.221 -92.32,-99.99 0,-63.593 39.188,-99.989 92.32,-99.989 32.403,0 53.134,13.792 65.936,36.009 v -22.987 c 0,-42.524 -21.854,-64.908 -62.171,-64.908 -32.026,0 -53.503,13.794 -58.784,38.312 h -31.655 c 4.905,-42.911 39.195,-66.279 88.18,-66.279 65.941,0 95.326,35.413 95.326,91.724 v 152.096 33.717 H 67.075 Z" /></g><g
           transform="translate(1712.0557,261.0199)"
           id="g54"><path
             id="path56"
             style="fill:#000000;fill-opacity:1;fill-rule:nonzero;stroke:none"
             d="M 0,0 V 29.502 H -4.144 -30.896 V 0 -165.887 H 0 v 99.608 c 0,31.034 10.932,65.128 51.246,65.128 H 66.693 V 29.502 H 58.031 C 23.741,29.502 9.044,14.94 0,0" /></g></g></g></g></svg>