<?xml version="1.0" encoding="UTF-8"?>
<svg id="_x30_0000" xmlns="http://www.w3.org/2000/svg" version="1.1" xmlns:xlink="http://www.w3.org/1999/xlink" viewBox="0 0 864 219.2">
  <!-- Generator: Adobe Illustrator 29.5.1, SVG Export Plug-In . SVG Version: 2.1.0 Build 141)  -->
  <defs>
    <style>
      .st0 {
        fill: #fff;
      }

      .st1 {
        mask: url(#mask);
      }

      .st2 {
        filter: url(#luminosity-invert-noclip);
      }

      .st3 {
        fill: url(#Degradado_sin_nombre_2);
      }

      .st4 {
        fill: url(#Degradado_sin_nombre_21);
      }
    </style>
    <filter id="luminosity-invert-noclip" x="41.3" y="55.9" width="258.4" height="107.5" color-interpolation-filters="sRGB" filterUnits="userSpaceOnUse">
      <feColorMatrix result="cm" values="-1 0 0 0 1 0 -1 0 0 1 0 0 -1 0 1 0 0 0 1 0"/>
      <feFlood flood-color="#fff" result="bg"/>
      <feBlend in="cm" in2="bg"/>
    </filter>
    <linearGradient id="Degradado_sin_nombre_2" data-name="Degradado sin nombre 2" x1="216.3" y1="96" x2="176.7" y2="130.9" gradientUnits="userSpaceOnUse">
      <stop offset=".3" stop-color="#000"/>
      <stop offset=".4" stop-color="#020202"/>
      <stop offset=".4" stop-color="#0c0c0c"/>
      <stop offset=".5" stop-color="#1c1c1c"/>
      <stop offset=".5" stop-color="#323232"/>
      <stop offset=".6" stop-color="#505050"/>
      <stop offset=".6" stop-color="#747474"/>
      <stop offset=".7" stop-color="#9e9e9e"/>
      <stop offset=".7" stop-color="#cecece"/>
      <stop offset=".7" stop-color="#fff"/>
    </linearGradient>
    <linearGradient id="Degradado_sin_nombre_21" data-name="Degradado sin nombre 2" x1="-4438.5" y1="6702.6" x2="-4478.2" y2="6737.5" gradientTransform="translate(-4313.6 6825.7) rotate(-180)" xlink:href="#Degradado_sin_nombre_2"/>
    <mask id="mask" x="41.3" y="55.9" width="258.4" height="107.5" maskUnits="userSpaceOnUse">
      <g class="st2">
        <g>
          <path class="st3" d="M248.3,65.4h-14.4c-8.4,0-16.3,4.1-21.1,10.9l-25.6,37.1,13.9,19.8,47.2-67.8Z"/>
          <path class="st4" d="M140.2,86l-47.2,67.7h14.4c8.4,0,16.3-4.1,21.1-10.9l25.6-37-13.9-19.8h0Z"/>
        </g>
      </g>
    </mask>
  </defs>
  <g>
    <path class="st0" d="M399.4,65.3h15.9v88.8h-15.9l-49.7-66.8v66.8h-15.9v-88.8h18.6l47.1,62.7v-62.7Z"/>
    <path class="st0" d="M494.8,126.4h-52.1c1.2,8.5,8.4,15.2,18.7,15.5,7.4.1,13.9-3.2,16.6-8.5h15.8c-4.2,14.3-17.1,22.5-32.6,22.5s-34.2-16-34.2-34.7,13.9-34.9,34.2-34.9,35.7,17.4,33.7,40ZM443,114h36.1c-2-8.2-8.9-13.5-18.2-13.5s-16,5.4-17.9,13.5Z"/>
    <path class="st0" d="M582.2,88.3h16l-21.5,65.9h-14.7l-14.2-44.9-13.9,44.9h-14.8l-21.5-65.9h16l13.5,44.5,13.7-44.5h14.2l13.8,44.7,13.4-44.7Z"/>
    <path class="st0" d="M659.6,88.3v14.8h-36.1c-2.5,0-4.2,1.6-4.2,4.1s1.5,3.7,3.3,4.1l26,5.7c9.5,2,15.6,9,15.6,17.9s-8.6,19.2-20.1,19.2h-38.2v-14.7h38c2.4,0,4.2-1.7,4.2-4.5s-1.2-3.8-3.4-4.4l-26.1-5.7c-9.3-2.1-15.4-9-15.4-17.8s8.5-18.8,19.9-18.8h36.5Z"/>
    <path class="st0" d="M727.3,88.3h15.1v65.9h-15.1v-9.5h-.7c-4.4,6.6-12.1,11.4-22.4,11.4-18.6.3-32.5-14.1-32.5-34.7s13.5-35,32.5-34.9c10.2.1,18,4.6,22.4,11h.7v-9.1ZM727.2,121.1c0-11.3-8-20.3-19.9-20.3s-20.1,8.9-20.1,20.3,8.1,20.3,20.1,20.3,19.9-9.1,19.9-20.3Z"/>
    <path class="st0" d="M822.7,116.2v37.9h-15.2v-35.5c0-10.3-6.2-17.2-15.6-17.2s-17.8,7.8-17.8,19.2v33.5h-15.2v-65.9h15v8.5h.5c4.8-6.4,12.5-10.3,21.3-10.3,16.4,0,27,11.3,27,29.8Z"/>
  </g>
  <g class="st1">
    <path class="st0" d="M285.2,65.4c-8.4,0-16.3,4.1-21.1,10.9l-39.6,56.7c-6.5,9.3-15.9,9.7-22.7,1.2l-.7-1.1,47.2-67.7h-14.4c-8.4,0-16.3,4.1-21.1,11l-25.6,37-28.3-40.3c-7.7-10.9-18.8-17.2-30.4-17.2-11.6,0-22.7,6.3-30.4,17.2l-56.9,81.1h14.4c8.4,0,16.3-4.1,21.1-10.9l40-57c6.8-9.7,16.6-9.7,23.4-.1l-47.6,68.1h14.4c8.4,0,16.3-4.1,21.1-10.9l26-37.4,28.3,40.4c7.7,10.9,18.8,17.2,30.4,17.2s22.7-6.3,30.4-17.2l56.5-80.7h-14.4Z"/>
  </g>
</svg>